# xmcd
#
# Track frame offsets: 
#        150
#        21643
#        43924
#        60417
#        82545
#        103559
#        109791
#        126971
#        145571
#        163163
#        180616
#        203399
#
# Disc length: 2944 seconds
#
# Revision: 3
# Processed by: cddbd v1.5.2PL0 Copyright (c) Steve Scherf et al.
# Submitted via: ExactAudioCopyFreeDBPlugin 1.0
#
DISCID=970b7e0c
DTITLE=Maroon - The Cold Heart Of The Sun (Japan Edition)
DYEAR=2007
DGENRE=Metalcore
TTITLE0=(Reach) The Sun
TTITLE1=Only The Sleeper Left The World
TTITLE2=Steelbath Your Heart
TTITLE3=My Funeral Song
TTITLE4=Black Halo!
TTITLE5=The Cold Heart Of The Sun
TTITLE6=For Those Unseen
TTITLE7=As Truth Becomes Vain
TTITLE8=The Iron Council
TTITLE9=Fear The Most Them Who Protect
TTITLE10=Some Goodbyes Are Farewells
TTITLE11=Maschinerie (Bonus Track)
EXTD=YEAR: 2007
EXTT0=
EXTT1=
EXTT2=
EXTT3=
EXTT4=
EXTT5=
EXTT6=
EXTT7=
EXTT8=
EXTT9=
EXTT10=
EXTT11=
PLAYORDER=
